<?xml version="1.0" standalone="no"?>
<!DOCTYPE svg PUBLIC "-//W3C//DTD SVG 20010904//EN"
 "http://www.w3.org/TR/2001/REC-SVG-20010904/DTD/svg10.dtd">
<svg version="1.0" xmlns="http://www.w3.org/2000/svg"
 width="1820.000000pt" height="1820.000000pt" viewBox="0 0 1820.000000 1820.000000"
 preserveAspectRatio="xMidYMid meet">
<metadata>
Created by potrace 1.11, written by Peter Selinger 2001-2013
</metadata>
<g transform="translate(0.000000,1820.000000) scale(0.100000,-0.100000)"
fill="#000000" stroke="none">
<path d="M3709 11325 c-3 -2 -25 -7 -49 -10 -152 -18 -392 -110 -560 -213 -71
-44 -174 -117 -218 -156 -54 -47 -223 -216 -216 -216 3 0 -1 -6 -8 -14 -62
-64 -158 -212 -214 -330 -25 -54 -47 -103 -48 -109 -1 -7 -4 -16 -8 -22 -6
-11 -34 -106 -42 -145 -23 -114 -58 -197 -100 -236 -12 -12 -53 -33 -91 -48
-39 -14 -95 -36 -125 -48 -74 -28 -178 -87 -240 -135 -189 -145 -363 -331
-461 -493 -18 -30 -37 -56 -41 -58 -4 -2 -8 -12 -8 -23 0 -10 -4 -19 -9 -19
-6 0 -73 -138 -77 -160 0 -3 -4 -12 -7 -20 -13 -30 -58 -196 -63 -230 -3 -19
-7 -40 -9 -47 -19 -58 -28 -406 -13 -523 10 -80 34 -187 56 -250 11 -30 20
-58 20 -63 3 -17 58 -126 94 -186 21 -34 38 -67 38 -72 0 -5 4 -9 9 -9 5 0 12
-8 15 -17 4 -10 19 -32 34 -49 15 -18 34 -42 42 -54 39 -59 179 -204 265 -275
33 -28 62 -52 65 -55 12 -14 169 -119 200 -135 19 -10 37 -21 40 -24 3 -3 34
-21 70 -39 36 -18 100 -52 143 -76 l78 -42 1362 2 c1778 2 1772 2 1993 104 47
22 89 40 94 40 4 0 10 3 12 8 4 9 126 82 138 82 4 0 11 7 14 16 3 8 10 13 15
10 5 -4 11 -3 13 2 1 4 32 30 68 57 89 68 243 224 313 317 146 196 249 420
272 598 2 14 4 25 5 25 2 0 6 24 17 110 17 141 6 522 -17 565 -5 10 -7 20 -4
22 2 3 -7 49 -20 102 -26 98 -72 209 -118 281 -14 22 -26 44 -26 48 -1 4 -7
14 -14 21 -7 8 -20 24 -28 36 -16 24 -86 116 -107 141 -137 159 -242 259 -366
347 -29 20 -54 39 -57 42 -8 8 -47 29 -135 73 -44 23 -82 43 -85 47 -3 3 -21
17 -40 30 -53 37 -67 59 -81 125 -36 172 -164 496 -221 559 -10 11 -18 24 -18
28 0 5 -29 47 -64 93 -171 224 -388 407 -606 512 -92 44 -241 94 -320 107 -14
3 -48 9 -77 15 -72 14 -138 23 -203 26 -30 2 -57 4 -60 5 -17 6 -169 4 -188
-2 -15 -5 -21 -4 -17 2 6 10 2 14 -6 5z m371 -398 c8 -2 33 -7 55 -11 22 -5
65 -15 95 -24 30 -9 57 -17 60 -17 3 -1 14 -5 25 -9 11 -4 34 -13 50 -19 33
-12 158 -71 190 -90 119 -71 272 -225 359 -362 82 -127 162 -331 173 -435 7
-80 -10 -99 -107 -111 -120 -14 -144 -19 -154 -29 -6 -6 -16 -10 -23 -10 -21
0 -181 -79 -277 -137 -88 -54 -265 -180 -297 -212 -39 -39 -103 -89 -244 -193
-5 -4 -24 -19 -41 -33 -18 -14 -35 -25 -39 -25 -8 0 -79 -53 -83 -62 -2 -5 -8
-8 -13 -8 -5 0 -50 -27 -99 -60 -49 -33 -94 -60 -100 -60 -5 0 -10 -4 -10 -10
0 -5 -4 -10 -8 -10 -9 0 -271 -157 -377 -226 -80 -52 -187 -134 -203 -156 -7
-9 -18 -23 -26 -30 -26 -26 -34 -71 -20 -111 11 -32 28 -53 81 -97 11 -9 66
-23 88 -22 63 3 96 18 437 194 64 33 121 57 127 54 9 -6 8 -89 -5 -231 -4 -44
-7 -88 -8 -97 0 -10 -3 -18 -6 -18 -3 0 -5 -12 -6 -27 0 -16 -3 -46 -7 -68 -5
-22 -9 -49 -10 -60 -2 -11 -6 -25 -9 -31 -4 -6 -10 -25 -13 -43 -3 -19 -12
-49 -20 -67 -8 -19 -12 -34 -10 -34 11 0 -98 -224 -123 -252 -8 -10 -12 -18
-8 -18 10 0 -105 -148 -162 -207 -28 -29 -55 -53 -61 -53 -6 0 -11 -4 -11 -9
0 -6 -26 -28 -57 -50 -32 -22 -62 -44 -68 -49 -9 -7 -154 -78 -210 -103 -42
-18 -161 -44 -255 -55 -96 -12 -260 -6 -260 8 0 5 -5 6 -10 3 -6 -4 -19 -3
-28 1 -9 4 -24 8 -32 9 -44 6 -225 90 -261 121 -8 8 -20 14 -26 14 -6 0 -13 3
-15 8 -2 4 -23 23 -48 41 -128 98 -265 260 -353 417 -31 55 -57 107 -57 115 0
8 -5 20 -12 27 -6 6 -13 17 -14 24 -1 7 -14 46 -28 86 -13 39 -23 72 -21 72 2
0 -1 15 -6 33 -16 56 -23 129 -23 227 1 90 11 186 21 202 2 5 6 18 8 30 10 53
58 183 97 260 151 308 413 550 705 652 76 27 117 34 228 41 133 8 143 16 150
123 11 151 18 206 35 272 5 19 11 46 14 60 2 14 9 36 14 50 5 14 10 27 10 30
1 7 9 31 18 55 4 11 8 22 9 25 21 61 137 290 147 290 4 0 8 7 8 15 0 7 8 19
18 24 9 6 14 11 10 11 -17 0 91 114 172 181 56 47 146 109 157 109 4 0 14 6
22 14 14 11 113 57 186 86 59 24 154 47 221 55 27 4 50 8 52 10 5 5 303 -2
322 -8z m1203 -1415 c44 -5 194 -60 277 -101 232 -113 433 -312 538 -531 48
-100 76 -175 86 -226 2 -11 9 -37 14 -59 31 -116 35 -386 7 -500 -2 -11 -9
-40 -15 -65 -12 -51 -37 -135 -50 -165 -23 -56 -86 -180 -92 -183 -5 -2 -8 -8
-8 -13 0 -9 -36 -65 -50 -79 -3 -3 -18 -23 -34 -44 -35 -47 -137 -148 -186
-185 -19 -14 -37 -28 -40 -31 -11 -12 -108 -70 -165 -98 -112 -57 -268 -104
-385 -118 -104 -12 -273 -24 -382 -28 -47 -2 -91 -7 -97 -10 -6 -4 -11 -2 -11
4 0 7 -5 8 -12 3 -7 -4 -271 -9 -586 -10 l-572 -2 12 22 c6 12 16 27 22 33 6
7 21 25 33 41 12 15 34 41 48 57 14 16 25 32 25 35 0 4 12 21 28 38 43 49 63
76 75 101 5 12 14 22 19 22 4 0 8 4 8 9 0 5 16 33 36 62 90 134 178 370 209
559 10 59 15 89 21 123 5 33 14 98 19 152 2 17 4 30 5 30 2 0 5 20 15 105 4
36 10 83 14 105 l7 40 26 -41 c15 -23 46 -79 70 -125 24 -46 45 -86 48 -89 5
-5 43 -82 45 -90 1 -11 102 -177 121 -198 60 -72 105 -109 140 -112 39 -4 63
0 78 15 8 8 18 15 23 15 20 0 57 77 59 123 2 46 -23 149 -51 212 -7 17 -16 41
-20 55 -7 23 -15 43 -60 145 -8 17 -23 51 -34 78 -12 26 -30 68 -42 95 -11 26
-31 72 -44 102 -13 30 -30 71 -38 90 -40 93 -50 163 -29 205 38 76 211 219
325 268 15 6 27 15 27 19 0 4 6 8 14 8 7 0 33 11 57 24 104 55 401 138 419
117 3 -3 18 -8 33 -9z"/>
<path d="M15216 11281 c-3 -5 -5 -113 -5 -240 l0 -231 27 -1 c15 0 186 -1 380
-1 l352 -1 -17 -21 c-10 -11 -33 -37 -52 -58 -19 -21 -41 -48 -49 -60 -9 -13
-19 -25 -22 -28 -4 -3 -31 -34 -60 -70 -30 -36 -62 -73 -72 -83 -10 -10 -18
-21 -18 -26 0 -4 -8 -16 -17 -27 -27 -29 -70 -98 -88 -140 -32 -74 -42 -130
-42 -238 -1 -96 2 -110 21 -129 22 -23 40 -25 116 -12 58 10 233 12 285 3 88
-14 202 -63 250 -105 67 -60 94 -261 47 -352 -41 -78 -130 -134 -237 -149 -54
-7 -182 -6 -225 2 -19 4 -48 9 -65 12 -16 3 -53 15 -82 26 -29 10 -55 19 -58
19 -3 -1 -69 31 -148 71 -78 40 -145 74 -149 76 -5 2 -24 -32 -43 -75 -20 -43
-45 -95 -56 -115 -11 -21 -17 -38 -14 -38 4 0 -2 -12 -13 -27 -19 -27 -25 -43
-42 -112 -15 -61 18 -100 135 -157 33 -16 62 -29 65 -30 3 0 17 -6 33 -12 84
-36 83 -36 120 -45 6 -2 21 -6 32 -10 20 -6 28 -8 120 -27 148 -31 375 -33
515 -5 14 2 39 7 55 10 30 6 73 20 110 35 96 41 126 55 174 87 83 53 184 163
221 240 60 125 74 192 75 368 0 138 -6 205 -26 270 -7 22 -13 42 -14 45 -4 20
-59 122 -76 141 -96 112 -150 152 -341 249 -49 25 -88 50 -88 55 0 6 15 26 33
45 17 20 57 65 87 100 96 110 108 124 140 160 41 46 116 158 130 196 22 54 23
69 27 247 l5 177 -716 0 c-399 0 -717 -4 -720 -9z"/>
<path d="M13176 11123 c-1 -2 -38 -5 -81 -8 -131 -8 -196 -18 -312 -45 -93
-22 -280 -92 -333 -125 -19 -12 -45 -25 -57 -29 -13 -4 -23 -12 -23 -17 0 -5
-5 -9 -12 -9 -39 0 -318 -254 -318 -290 0 -5 -4 -10 -8 -12 -5 -1 -29 -37 -53
-78 -96 -162 -129 -255 -145 -414 -6 -63 -5 -380 1 -421 3 -16 7 -50 10 -75 3
-25 12 -72 20 -105 9 -33 18 -71 21 -85 3 -13 9 -29 14 -35 4 -5 9 -13 9 -18
1 -19 45 -106 82 -161 47 -69 153 -176 219 -221 25 -16 47 -32 50 -35 17 -17
226 -125 290 -150 30 -11 69 -27 85 -34 55 -25 298 -105 445 -146 80 -22 152
-44 160 -47 8 -3 24 -8 35 -10 26 -5 192 -61 230 -78 17 -7 41 -16 54 -20 35
-11 220 -104 244 -124 67 -52 126 -116 148 -158 20 -40 24 -62 24 -133 0 -143
-53 -222 -195 -292 -97 -47 -116 -54 -215 -72 -5 -1 -15 -4 -20 -8 -6 -4 -67
-5 -135 -3 -96 2 -147 9 -220 29 -52 15 -102 28 -110 30 -84 22 -355 147 -458
213 -29 18 -57 33 -62 33 -6 0 -10 5 -10 10 0 6 -6 10 -12 10 -7 0 -26 12 -43
26 -16 14 -45 35 -65 47 -19 12 -39 25 -45 30 -5 4 -41 30 -80 57 -38 27 -75
53 -81 57 -47 36 -50 35 -100 -30 -60 -76 -76 -96 -90 -111 -6 -6 -26 -31 -45
-56 -19 -25 -66 -85 -106 -135 -39 -49 -112 -142 -162 -205 l-91 -115 43 -40
c73 -70 210 -181 272 -221 64 -41 66 -43 160 -94 33 -18 65 -36 70 -40 17 -11
300 -140 309 -140 2 0 17 -5 33 -11 15 -6 30 -10 33 -11 3 0 10 -3 15 -8 6 -4
48 -20 95 -34 47 -15 94 -31 105 -36 21 -9 167 -45 220 -55 17 -3 44 -8 60
-11 100 -20 218 -28 390 -27 219 1 288 8 425 39 36 9 74 17 85 20 126 25 381
144 497 231 102 77 238 210 238 233 0 5 6 13 13 17 27 17 147 223 130 223 -4
0 -3 4 3 8 19 12 76 196 89 287 19 135 24 310 12 415 -27 245 -117 435 -281
595 -92 90 -101 97 -171 142 -27 18 -55 36 -61 40 -48 36 -361 185 -388 185
-3 0 -29 8 -58 19 -48 19 -138 48 -163 54 -5 1 -17 5 -25 8 -8 3 -62 20 -120
37 -58 17 -133 41 -168 52 -34 11 -68 21 -75 22 -7 2 -19 6 -27 9 -8 3 -44 15
-80 27 -36 12 -74 25 -85 30 -11 5 -56 23 -100 40 -156 61 -245 132 -315 249
-34 57 -39 74 -36 110 7 67 70 185 131 245 75 73 91 83 200 122 83 29 366 27
445 -3 8 -3 21 -7 29 -9 62 -12 118 -28 127 -36 7 -5 23 -11 35 -13 13 -3 40
-11 59 -19 19 -8 55 -23 80 -32 25 -10 154 -73 288 -140 l242 -122 38 55 c20
30 43 61 50 68 6 8 12 18 12 23 0 6 4 12 8 14 5 2 28 32 52 68 24 36 50 71 57
78 7 7 13 19 13 27 0 7 4 15 8 17 11 4 117 185 144 244 41 93 41 100 0 142
-75 77 -233 169 -447 261 -55 23 -109 46 -120 51 -26 12 -230 80 -252 84 -10
2 -36 9 -58 14 -22 6 -56 13 -75 16 -19 3 -44 7 -55 10 -11 2 -42 7 -70 10
-27 4 -63 9 -80 12 -16 2 -68 6 -114 9 -46 2 -86 6 -88 9 -3 3 -16 1 -29 -4
-13 -5 -24 -6 -24 -2 0 6 -198 11 -204 5z"/>
<path d="M9529 11106 c-3 -3 -124 -15 -214 -22 -16 -1 -37 -4 -45 -7 -8 -4
-28 -8 -45 -11 -54 -9 -143 -36 -205 -63 -8 -3 -20 -7 -26 -8 -23 -5 -222
-106 -289 -146 -227 -137 -482 -363 -636 -564 -13 -16 -26 -32 -30 -35 -20
-15 -164 -250 -208 -337 -127 -254 -157 -367 -166 -621 -2 -63 -6 -116 -9
-119 -3 -3 -1 -13 4 -23 5 -10 7 -20 4 -23 -8 -8 -8 -163 0 -176 4 -6 3 -11
-3 -11 -10 0 -9 -25 1 -36 4 -3 3 -17 -2 -30 -6 -14 -6 -26 0 -29 7 -4 6 -13
0 -26 -6 -11 -8 -24 -5 -29 3 -5 8 -69 11 -142 2 -73 6 -146 8 -163 7 -52 23
-140 26 -140 1 0 3 -11 6 -24 8 -45 76 -205 139 -328 55 -106 167 -286 199
-319 6 -6 22 -26 36 -44 62 -82 194 -219 284 -295 26 -22 53 -44 59 -50 48
-40 155 -115 166 -115 4 0 16 -8 27 -17 47 -42 340 -184 389 -189 6 0 23 -6
38 -12 49 -20 245 -70 251 -64 3 3 6 1 6 -4 0 -6 12 -9 28 -9 15 1 37 -2 50
-7 13 -4 42 -10 65 -13 23 -3 60 -8 82 -11 191 -25 493 -19 645 11 14 3 39 8
55 11 17 3 48 10 70 15 22 5 49 11 60 13 93 15 410 144 530 216 33 20 71 43
84 51 14 8 30 17 35 22 6 4 43 29 81 57 39 27 77 55 86 62 38 30 114 95 144
123 35 33 156 141 194 174 13 12 22 23 20 26 -34 39 -604 615 -609 615 -4 0
-47 -39 -96 -86 -49 -47 -109 -103 -133 -123 -25 -20 -53 -44 -63 -53 -10 -10
-21 -19 -25 -19 -5 -1 -24 -12 -43 -24 -64 -40 -170 -95 -184 -95 -8 0 -16 -3
-18 -7 -1 -5 -34 -19 -73 -31 -38 -13 -77 -26 -85 -29 -8 -3 -22 -7 -30 -9 -8
-2 -53 -12 -100 -22 -47 -10 -100 -17 -117 -17 -18 0 -33 -2 -33 -5 0 -6 -208
-4 -275 4 -27 3 -75 11 -105 18 -30 6 -59 12 -65 14 -90 19 -330 135 -343 166
-2 5 -8 8 -14 8 -12 0 -106 77 -148 121 -137 144 -191 226 -291 444 -20 44
-55 171 -65 238 -2 15 -6 39 -10 55 -10 43 -13 306 -4 354 5 24 14 72 21 108
8 36 14 67 14 70 2 17 39 117 46 126 5 6 6 14 2 17 -3 4 -1 7 5 7 7 0 12 7 12
15 0 19 51 113 109 199 42 65 229 266 245 266 4 0 26 15 49 34 23 18 56 41 72
50 17 9 50 28 75 42 53 30 180 85 180 78 0 -2 14 2 30 11 17 9 30 13 30 10 0
-3 8 -1 18 4 9 5 34 12 56 15 21 4 41 8 45 10 13 9 148 19 241 20 114 0 207
-10 305 -34 28 -6 61 -14 75 -16 13 -3 30 -10 37 -16 7 -6 13 -8 13 -5 0 14
246 -100 280 -129 8 -7 20 -13 25 -14 6 0 34 -19 63 -40 29 -22 56 -40 60 -40
4 0 15 -8 24 -17 8 -10 46 -45 84 -78 37 -33 75 -67 84 -75 70 -64 67 -62 81
-47 8 7 33 36 56 63 23 27 61 70 85 96 23 26 63 70 88 99 25 28 56 64 70 79
14 15 52 58 85 96 33 38 69 78 80 90 11 11 37 42 59 68 l39 48 -68 61 c-38 34
-97 89 -132 123 -34 33 -63 59 -63 58 0 -2 -21 16 -47 40 -81 74 -279 216
-302 216 -5 0 -11 3 -13 8 -4 9 -216 112 -232 112 -3 0 -17 5 -33 12 -15 6
-32 12 -38 13 -5 0 -17 4 -25 7 -16 6 -91 27 -122 34 -10 2 -27 6 -38 9 -42
10 -66 15 -110 21 -25 3 -54 8 -65 10 -11 2 -42 7 -70 10 -27 3 -63 7 -80 10
-35 6 -570 15 -576 10z"/>
</g>
</svg>
